<?xml version="1.0" standalone="no"?>
<!DOCTYPE svg PUBLIC "-//W3C//DTD SVG 20010904//EN"
 "http://www.w3.org/TR/2001/REC-SVG-20010904/DTD/svg10.dtd">
<svg version="1.0" xmlns="http://www.w3.org/2000/svg"
 width="1280.000000pt" height="640.000000pt" viewBox="0 0 1280.000000 640.000000"
 preserveAspectRatio="xMidYMid meet">
<metadata>
Created by potrace 1.15, written by Peter Selinger 2001-2017
</metadata>
<g transform="translate(0.000000,640.000000) scale(0.100000,-0.100000)"
fill="#000000" stroke="none">
<path d="M7090 6318 c-161 -97 -126 -341 56 -387 28 -7 198 -11 481 -11 l439
0 109 -267 c61 -146 112 -270 113 -275 2 -4 -813 -8 -1811 -8 l-1815 0 -87
156 c-48 85 -85 157 -83 158 1 2 205 25 451 53 482 53 472 51 521 117 15 20
21 43 21 81 0 60 -20 95 -75 133 l-33 22 -762 0 -762 0 -34 -23 c-19 -12 -44
-42 -57 -67 -21 -40 -23 -54 -19 -138 10 -168 57 -222 202 -232 l80 -5 122
-218 123 -219 -336 -571 c-185 -315 -338 -573 -339 -575 -2 -2 -47 13 -102 33
-475 179 -936 192 -1403 39 -761 -247 -1311 -916 -1409 -1714 -14 -109 -14
-371 -1 -480 91 -736 563 -1364 1241 -1653 422 -180 890 -216 1335 -102 354
91 655 260 923 520 228 221 388 462 498 749 41 107 98 326 108 411 4 33 9 68
11 78 5 16 45 17 655 17 l649 0 0 -375 0 -375 -154 0 c-139 0 -156 -2 -179
-20 -38 -30 -52 -80 -34 -123 28 -65 36 -67 289 -67 l228 0 32 29 33 29 3 464
3 463 48 50 c26 27 522 649 1101 1380 579 732 1058 1336 1065 1343 9 10 45
-67 172 -375 l159 -388 -94 -57 c-537 -328 -896 -877 -977 -1493 -19 -149 -19
-394 1 -537 122 -886 790 -1586 1674 -1754 187 -36 442 -43 630 -19 483 61
902 271 1240 621 162 167 262 308 363 509 96 193 154 374 194 600 24 139 24
490 0 630 -75 434 -258 798 -557 1108 -273 284 -604 477 -979 572 -189 48
-283 59 -506 59 -221 0 -293 -7 -478 -51 -60 -14 -110 -23 -111 -22 -2 2 -195
472 -431 1044 -235 572 -439 1057 -452 1077 -15 22 -46 47 -76 63 l-51 25
-556 0 -556 0 -54 -32z m1043 -1390 c-6 -7 -397 -501 -869 -1098 -473 -597
-879 -1109 -902 -1138 l-42 -54 0 246 0 246 153 0 c171 0 188 5 214 67 18 43
4 93 -34 123 -24 19 -40 20 -254 20 l-229 0 -32 -29 -33 -29 -5 -234 -5 -234
-590 1053 c-324 579 -591 1058 -593 1063 -3 7 547 10 1613 10 1293 0 1616 -3
1608 -12z m-2945 -1378 c352 -630 644 -1153 648 -1162 6 -17 -23 -18 -514 -18
l-521 0 -6 38 c-48 312 -136 568 -276 798 -120 199 -287 393 -458 534 -50 41
-91 77 -91 81 0 4 122 215 271 468 l272 462 17 -28 c9 -15 305 -543 658 -1173z
m-2273 230 c49 -6 123 -18 165 -26 109 -22 292 -85 287 -98 -3 -6 -189 -324
-414 -707 -226 -383 -415 -711 -421 -729 -33 -94 14 -200 113 -253 40 -22 41
-22 878 -25 l839 -3 -7 -42 c-12 -75 -57 -240 -86 -314 -90 -228 -198 -393
-374 -569 -243 -244 -510 -388 -849 -457 -95 -19 -141 -22 -316 -21 -173 0
-221 4 -310 23 -664 142 -1160 638 -1292 1294 -33 161 -32 463 1 617 47 220
129 416 249 595 337 503 940 783 1537 715z m7110 0 c274 -32 513 -120 745
-274 146 -97 341 -293 439 -439 281 -425 352 -926 199 -1407 -166 -520 -598
-930 -1133 -1075 -227 -61 -529 -71 -750 -25 -577 121 -1047 535 -1229 1081
-66 197 -80 289 -80 519 0 175 3 220 23 310 93 434 333 794 693 1037 54 37 99
65 101 62 2 -2 142 -341 311 -754 172 -417 320 -766 336 -785 89 -115 261
-111 344 8 24 34 31 56 34 106 l4 63 -311 755 c-171 416 -311 760 -311 766 0
13 142 43 260 55 78 8 240 6 325 -3z m-6174 -429 c203 -190 345 -406 432 -658
32 -91 77 -271 77 -308 0 -13 -72 -15 -620 -15 -341 0 -620 3 -620 7 0 12 622
1063 629 1063 4 0 50 -40 102 -89z"/>
</g>
</svg>
